<svg width="82" height="84" viewBox="0 0 82 84" fill="none" xmlns="http://www.w3.org/2000/svg">
<path d="M11.0391 71.7969C10.5703 71.3542 10.2578 70.8333 10.1016 70.2344C9.97135 69.6354 9.98438 69.0365 10.1406 68.4375C10.2969 67.8385 10.5964 67.3177 11.0391 66.875L36.0391 41.8359L11.0391 16.8359C10.5964 16.3932 10.2969 15.8724 10.1406 15.2734C10.0104 14.6745 10.0104 14.0755 10.1406 13.4766C10.2969 12.8776 10.5964 12.3568 11.0391 11.9141C11.4818 11.4453 12.0026 11.1458 12.6016 11.0156C13.2005 10.8594 13.7995 10.8594 14.3984 11.0156C15.0234 11.1458 15.5573 11.4453 16 11.9141L41 36.9141L66 11.9141C66.4427 11.4453 66.9635 11.1458 67.5625 11.0156C68.1615 10.8594 68.7604 10.8594 69.3594 11.0156C69.9583 11.1458 70.4922 11.4453 70.9609 11.9141C71.4036 12.3568 71.7031 12.8776 71.8594 13.4766C72.0156 14.0755 72.0156 14.6745 71.8594 15.2734C71.7031 15.8724 71.4036 16.3932 70.9609 16.8359L45.9609 41.8359L70.9609 66.875C71.4036 67.3177 71.6901 67.8385 71.8203 68.4375C71.9766 69.0365 71.9766 69.6354 71.8203 70.2344C71.6901 70.8333 71.4036 71.3542 70.9609 71.7969C70.5182 72.2656 69.9844 72.5651 69.3594 72.6953C68.7604 72.8516 68.1615 72.8516 67.5625 72.6953C66.9635 72.5391 66.4427 72.2396 66 71.7969L41 46.7969L16 71.7969C15.5573 72.2396 15.0365 72.5391 14.4375 72.6953C13.8385 72.8516 13.2396 72.8516 12.6406 72.6953C12.0417 72.5391 11.5078 72.2396 11.0391 71.7969Z" fill="#C4C4C4"/>
</svg>
