<svg width="1024" height="1366" viewBox="0 0 1024 1366" fill="none" xmlns="http://www.w3.org/2000/svg">
<g clip-path="url(#clip0_570_3010)">
<rect width="1024" height="1366" fill="#17AAB4"/>
<path d="M82.9595 742.671C77.9619 699.384 0 731.889 0 731.889V1367H1023.5V756.964C945.039 752.007 947.038 705.862 894.063 687.486C841.089 669.11 831.594 727.562 799.45 731.889C757.753 737.502 758.676 719.399 718.149 718.578C693.864 718.086 624.195 761.456 586.714 756.964C529.457 755.336 540.383 700.097 486.263 699.384C423.056 698.551 371.818 718.708 346.331 731.307C320.843 743.905 284.861 748.388 280.863 726.337C276.865 704.285 245.38 711.67 205.899 731.307C166.419 750.944 85.5411 765.032 82.9595 742.671Z" fill="#FCF5EE"/>
<path d="M82.9595 745.495C82.9595 720.585 53.4739 712.418 0 734.713V718.951C8.82902 716.365 23.1101 706.01 57.9717 700.983C108.947 693.633 113.384 721.774 138.932 725.485C183.91 732.019 238.693 689.549 280.863 689.549C309.349 689.549 316.346 711.192 341.333 711.192C372.318 711.192 401.896 697.916 433.288 680.157C491.76 647.08 579.617 696.245 594.21 702.208C626.194 715.276 661.677 708.333 693.661 696.491C725.646 684.65 766.467 709.967 799.45 706.7C832.434 703.434 853.595 656 915.553 656C964.029 656 979.022 689.549 1023.5 700.984V759.788C961.031 759.788 946.788 706.7 903.059 696.491C859.33 686.282 831.594 730.386 799.45 734.713C757.753 740.325 758.676 722.223 718.149 721.402C693.864 720.91 624.195 764.28 586.714 759.788C529.457 758.16 540.383 702.921 486.263 702.208C423.056 701.375 371.818 721.532 346.331 734.131C320.843 746.729 284.861 751.212 280.863 729.161C276.865 707.109 245.38 714.494 205.899 734.131C166.419 753.768 82.9595 767.955 82.9595 745.495Z" fill="white"/>
<path d="M0 733.889C0 733.889 77.9619 701.384 82.9595 744.671C85.5411 767.032 166.419 752.944 205.899 733.307C245.38 713.67 276.865 706.285 280.863 728.337C284.861 750.388 320.843 745.905 346.331 733.307C371.818 720.708 423.056 700.551 486.263 701.384C540.383 702.097 529.457 757.336 586.714 758.964C624.195 763.456 693.864 720.086 718.149 720.578C758.676 721.399 757.753 739.502 799.45 733.889C841.148 728.276 850.585 687.852 900.56 697.244C950.536 706.637 954.534 758.964 1024 758.964" stroke="#C4C4C4" stroke-width="3"/>
<path d="M111.9 939.652C112.057 925.815 124.736 918.722 131.056 916.905C141.567 917.54 145.542 924.373 139.307 928.118C133.071 931.863 123.354 935.53 133.604 947.143C142.056 956.72 136.393 968.879 129.89 977.416C123.388 985.953 123.197 980.968 121.27 996.677C119.343 1012.39 105.582 1009.47 98.9424 1006.05C95.0182 1001.41 91.2226 988.93 107.434 976.061C127.698 959.975 111.703 956.949 111.9 939.652Z" fill="#90CEB5"/>
<path d="M106.378 1007.98C106.475 999.354 108.804 984.102 116.933 979.029C124.031 974.601 127.377 966.652 127.466 961.998C125.692 953.255 121.349 946.302 121.504 938.938" stroke="#8C8C8C"/>
<path d="M849.081 1215.04C840.745 1202.79 824.977 1201.89 818.135 1202.98C808.919 1208.03 809.337 1215.82 817.244 1216.49C825.151 1217.15 836.189 1216.27 833.711 1230.99C831.668 1243.12 844.034 1251.53 855.021 1256.35C866.009 1261.17 863.232 1256.65 874.29 1269.81C885.348 1282.97 896.177 1274.49 900.21 1268.61C901.048 1262.81 897.121 1250.07 874.71 1245.55C846.697 1239.88 859.5 1230.36 849.081 1215.04Z" fill="#90CEB5"/>
<path d="M894.591 1273.18C889.424 1265.56 878.297 1253.04 867.799 1252.07C858.633 1251.22 850.863 1245.61 848.042 1241.52C844.537 1232.99 844.461 1224.94 839.985 1218.47" stroke="#666666"/>
<path d="M133.927 1281.95C128.503 1277.34 117.752 1281.06 113.054 1283.49C109.159 1285.51 114.505 1291.34 119.39 1293.65C136.855 1301.89 138.193 1296.44 138.567 1295.53C140.597 1290.61 140.707 1287.72 133.927 1281.95Z" fill="#E3DAD1"/>
<path d="M505.781 1192.23C500.163 1195.9 503.197 1200.52 505.955 1204.35C508.241 1207.51 516.369 1207.96 519.234 1204.47C524.115 1198.52 520.125 1192.73 519.061 1192.36C513.288 1190.32 512.802 1187.64 505.781 1192.23Z" fill="#E3DAD1"/>
<path d="M307.628 1094.02C304.639 1095.76 306.627 1098.33 308.412 1100.46C309.892 1102.23 314.543 1102.78 315.976 1101.03C318.416 1098.06 315.818 1094.83 315.191 1094.59C311.791 1093.29 311.363 1091.85 307.628 1094.02Z" fill="#E3DAD1"/>
<path d="M695.438 1288.74C692.45 1290.48 694.437 1293.05 696.223 1295.18C697.703 1296.95 702.354 1297.5 703.786 1295.75C706.227 1292.77 703.628 1289.55 703.002 1289.31C699.602 1288.01 699.174 1286.57 695.438 1288.74Z" fill="#E3DAD1"/>
<path d="M146.415 856.906C143.044 859.109 144.864 861.881 146.519 864.174C147.891 866.076 152.768 866.346 154.487 864.25C157.416 860.679 155.021 857.206 154.383 856.981C150.919 855.759 150.628 854.151 146.415 856.906Z" fill="#E3DAD1"/>
<path d="M843.94 832.62C839.469 834.895 843.004 838.903 846.155 842.246C848.766 845.018 856.216 846.297 858.221 843.852C861.638 839.686 857.035 834.643 856.007 834.225C850.425 831.956 849.529 829.776 843.94 832.62Z" fill="#E3DAD1"/>
<path d="M704.686 941.936C702.259 943.307 703.944 945.412 705.453 947.164C706.705 948.616 710.543 949.117 711.689 947.72C713.641 945.34 711.442 942.694 710.922 942.492C708.099 941.396 707.719 940.223 704.686 941.936Z" fill="#E3DAD1"/>
<path d="M900.59 1201.65C898.164 1203.02 899.848 1205.13 901.358 1206.88C902.609 1208.33 906.447 1208.84 907.593 1207.44C909.546 1205.06 907.346 1202.41 906.826 1202.21C904.003 1201.11 903.624 1199.94 900.59 1201.65Z" fill="#E3DAD1"/>
<path d="M528.772 1217.17C526.345 1218.54 528.029 1220.65 529.539 1222.4C530.791 1223.85 534.629 1224.35 535.775 1222.96C537.727 1220.58 535.528 1217.93 535.008 1217.73C532.185 1216.63 531.805 1215.46 528.772 1217.17Z" fill="#E3DAD1"/>
<path d="M194.183 1288.38C193.962 1286.3 197.651 1284.6 199.523 1284.02C203.032 1282.92 205.508 1284.02 206.044 1285.38C206.735 1287.13 204.208 1290.23 202.666 1291.74C201.125 1293.26 194.459 1290.99 194.183 1288.38Z" fill="#E3DAD1"/>
<path d="M441.063 1027.85C440.842 1025.76 444.531 1024.07 446.403 1023.48C449.912 1022.38 452.387 1023.48 452.924 1024.84C453.614 1026.6 451.087 1029.69 449.546 1031.21C448.004 1032.72 441.338 1030.45 441.063 1027.85Z" fill="#E3DAD1"/>
<path d="M131.668 1096.89C128.532 1095.54 130.361 1092.21 131.668 1090.72C134.117 1087.91 138.438 1087.26 140.932 1087.91C144.139 1088.75 145.564 1092.4 145.92 1094.36C146.276 1096.33 135.587 1098.57 131.668 1096.89Z" fill="#E3DAD1"/>
<path d="M182.076 888.428C178.157 886.632 180.443 882.194 182.076 880.2C185.138 876.461 190.538 875.589 193.656 876.46C197.665 877.58 199.446 882.444 199.891 885.062C200.337 887.68 186.975 890.671 182.076 888.428Z" fill="#E3DAD1"/>
<path d="M458.941 734.883C455.022 733.088 457.308 728.65 458.941 726.656C462.003 722.916 467.403 722.044 470.521 722.916C474.53 724.036 476.311 728.899 476.756 731.517C477.202 734.135 463.84 737.127 458.941 734.883Z" fill="#E3DAD1"/>
<path d="M722.812 961.932C718.893 960.137 721.179 955.699 722.812 953.705C725.874 949.965 731.274 949.094 734.392 949.965C738.401 951.085 740.182 955.949 740.627 958.566C741.073 961.184 727.711 964.176 722.812 961.932Z" fill="#E3DAD1"/>
<path d="M905.723 1032.99C901.803 1031.19 904.09 1026.75 905.723 1024.76C908.785 1021.02 914.185 1020.15 917.303 1021.02C921.312 1022.14 923.093 1027 923.538 1029.62C923.984 1032.24 910.622 1035.23 905.723 1032.99Z" fill="#E3DAD1"/>
<path d="M256.611 1178.35C261.609 1178.75 263.108 1191.31 266.106 1192.38C269.105 1193.46 290.857 1190.34 290.976 1195.67C291.095 1201.01 273.235 1208.21 272.919 1211.04C272.603 1213.87 285.425 1231.02 277.982 1232.43C270.54 1233.83 256.611 1222.57 253.494 1222.57C250.376 1222.57 231.07 1228.17 224.626 1228.17C218.183 1228.17 234.122 1213.46 234.068 1211.04C234.015 1208.62 221.892 1198.97 221.892 1195.67C221.891 1192.38 242.251 1192.38 245.38 1192.38C248.509 1192.38 251.613 1177.94 256.611 1178.35Z" fill="#ECB7AC"/>
<path d="M232.886 1222.44C238.05 1218.85 249.378 1211.9 253.376 1212.77M232.886 1198.35C236.218 1199.3 243.481 1201.7 245.88 1203.66M253.376 1200.39C253.043 1195.22 253.176 1184.87 256.375 1184.87M263.371 1203.66C268.202 1201.83 278.964 1198.39 283.362 1199.28M260.373 1212.77C264.537 1216 273.167 1223.17 274.366 1226.12" stroke="#8C8C8C" stroke-width="2" stroke-dasharray="10 4"/>
<path d="M867.313 885.958C872.311 886.367 873.81 898.921 876.808 899.994C879.807 901.068 901.559 897.952 901.678 903.288C901.797 908.623 883.937 915.822 883.621 918.654C883.305 921.486 896.127 938.637 888.684 940.04C881.242 941.443 867.313 930.187 864.196 930.187C861.078 930.187 841.772 935.779 835.328 935.779C828.885 935.779 844.824 921.078 844.77 918.654C844.716 916.231 832.594 906.581 832.593 903.288C832.593 899.994 852.953 899.994 856.082 899.994C859.211 899.994 862.315 885.55 867.313 885.958Z" fill="#ECB7AC"/>
<path d="M843.588 930.052C848.752 926.465 860.08 919.51 864.078 920.386M843.588 905.959C846.92 906.912 854.183 909.308 856.582 911.268M864.078 908.001C863.745 902.829 863.878 892.483 867.077 892.483M874.073 911.268C878.904 909.439 889.666 906.003 894.063 906.891M871.075 920.386C875.239 923.608 883.868 930.788 885.068 933.728" stroke="#8C8C8C" stroke-width="2" stroke-dasharray="10 4"/>
</g>
<defs>
<clipPath id="clip0_570_3010">
<rect width="1024" height="1366" fill="white"/>
</clipPath>
</defs>
</svg>
