<svg width="40" height="30" viewBox="0 0 40 30" fill="none" xmlns="http://www.w3.org/2000/svg">
<path d="M20.1025 0.00470286C22.9964 0.230686 23.8641 7.17797 25.6003 7.77211C27.3364 8.36625 39.9308 6.6422 39.9997 9.59459C40.0685 12.547 29.7278 16.5312 29.5449 18.0983C29.3619 19.6654 36.7856 29.1567 32.4764 29.933C28.1671 30.7093 20.1025 24.4802 18.2975 24.4802C16.4926 24.4802 5.31432 27.5747 1.58345 27.5747C-2.14743 27.5747 7.08124 19.4394 7.05021 18.0983C7.01918 16.7572 0.000304622 11.4171 5.90338e-09 9.59459C-0.00030461 7.77211 11.7882 7.77211 13.5998 7.77211C15.4114 7.77211 17.2086 -0.22128 20.1025 0.00470286Z" fill="#ECB7AC"/>
<path d="M6.36621 24.4055C9.35624 22.4205 15.915 18.5716 18.2299 19.056M6.36621 11.0727C8.29526 11.6 12.5006 12.9257 13.8895 14.0104M18.2299 12.2026C18.037 9.34013 18.1141 3.61523 19.966 3.61523M24.017 14.0104C26.8141 12.9983 33.045 11.097 35.5913 11.5884M22.2809 19.056C24.6922 20.8392 29.6884 24.8124 30.3829 26.4395" stroke="#8C8C8C" stroke-width="2" stroke-dasharray="10 4"/>
</svg>
