<svg width="1024" height="982" viewBox="0 0 1024 982" fill="none" xmlns="http://www.w3.org/2000/svg">
<path d="M82.9595 122.125C77.9619 62.5063 0 107.274 0 107.274V982H1023.5V141.81C945.039 134.983 947.038 71.4284 894.063 46.1195C841.089 20.8105 831.594 101.315 799.45 107.274C757.753 115.005 758.676 90.0722 718.149 88.9417C693.864 88.2643 624.195 147.997 586.714 141.81C529.457 139.568 540.383 63.4881 486.263 62.5063C423.056 61.3596 371.818 89.121 346.331 106.473C320.843 123.825 284.861 129.999 280.863 99.6276C276.865 69.2564 245.38 79.4271 205.899 106.473C166.419 133.519 85.5411 152.922 82.9595 122.125Z" fill="#FCF5EE"/>
<path d="M82.9595 126.015C82.9595 91.7064 53.4739 80.4578 0 111.164V89.4564C8.82902 85.8944 23.1101 71.6331 57.9717 64.7096C108.947 54.5858 113.384 93.3438 138.932 98.4553C183.91 107.454 238.693 48.9615 280.863 48.9615C309.349 48.9615 316.346 78.7703 341.333 78.7703C372.318 78.7703 401.896 60.4845 433.288 36.0257C491.76 -9.53101 579.617 58.184 594.21 66.396C626.194 84.3946 661.677 74.8319 693.661 58.5228C725.646 42.2137 766.467 77.0822 799.45 72.5836C832.434 68.085 853.595 2.75449 915.553 2.75488C964.029 2.75519 979.022 48.9615 1023.5 64.7099V145.7C961.031 145.7 946.788 72.5836 903.059 58.5228C859.33 44.4621 831.594 105.205 799.45 111.164C757.753 118.894 758.676 93.962 718.149 92.8315C693.864 92.1541 624.195 151.886 586.714 145.7C529.457 143.458 540.383 67.3778 486.263 66.396C423.056 65.2494 371.818 93.0107 346.331 110.363C320.843 127.714 284.861 133.888 280.863 103.517C276.865 73.1462 245.38 83.3168 205.899 110.363C166.419 137.408 82.9595 156.948 82.9595 126.015Z" fill="white"/>
<path d="M0 110.029C0 110.029 77.9619 65.2613 82.9595 124.88C85.5411 155.677 166.419 136.274 205.899 109.228C245.38 82.1822 276.865 72.0115 280.863 102.383C284.861 132.754 320.843 126.58 346.331 109.228C371.818 91.8761 423.056 64.1147 486.263 65.2613C540.383 66.2431 529.457 142.323 586.714 144.565C624.195 150.752 693.864 91.0194 718.149 91.6968C758.676 92.8273 757.753 117.76 799.45 110.029C841.148 102.299 850.585 46.6244 900.56 59.56C950.536 72.4956 954.534 144.565 1024 144.565" stroke="#C4C4C4" stroke-width="3"/>
<path d="M110.839 393.417C110.588 374.501 123.755 365.253 130.37 362.994C141.482 364.234 145.882 373.72 139.415 378.619C132.947 383.518 122.803 388.187 133.969 404.431C143.177 417.826 137.567 434.251 130.962 445.693C124.357 457.135 124.005 450.313 122.445 471.725C120.884 493.136 106.274 488.657 99.1639 483.741C94.8832 477.267 90.5018 460.064 107.222 443.043C128.123 421.767 111.153 417.061 110.839 393.417Z" fill="#90CEB5"/>
<path d="M106.409 486.984C106.247 475.136 108.308 454.27 116.993 447.593C124.576 441.764 127.969 430.966 127.922 424.577C125.721 412.505 120.781 402.8 120.721 392.692" stroke="#8C8C8C"/>
<path d="M850.352 772.699C842.505 756.094 826.153 755.841 818.957 757.79C809.021 765.447 808.93 776.304 817.115 776.738C825.3 777.172 836.849 775.23 833.274 795.971C830.325 813.075 842.628 824.044 853.738 830.089C864.848 836.135 862.264 829.991 872.883 847.696C883.502 865.4 895.349 852.856 899.944 844.37C901.21 836.204 897.985 818.644 874.964 813.733C846.188 807.593 860.16 793.455 850.352 772.699Z" fill="#90CEB5"/>
<path d="M894.562 851.647C889.634 841.233 878.754 824.273 867.744 823.573C858.131 822.961 850.318 815.555 847.623 809.963C844.511 798.152 844.983 786.791 840.706 777.951" stroke="#666666"/>
<path d="M133.927 864.865C128.503 858.507 117.752 863.632 113.054 866.989C109.159 869.773 114.505 877.8 119.39 880.974C136.855 892.322 138.193 884.816 138.567 883.567C140.597 876.789 140.707 872.812 133.927 864.865Z" fill="#E3DAD1"/>
<path d="M505.781 741.294C500.164 746.352 503.197 752.715 505.955 757.979C508.241 762.344 516.37 762.964 519.234 758.153C524.116 749.956 520.125 741.984 519.061 741.467C513.288 738.662 512.802 734.971 505.781 741.294Z" fill="#E3DAD1"/>
<path d="M307.628 606.036C304.639 608.43 306.627 611.966 308.412 614.905C309.892 617.341 314.543 618.094 315.976 615.689C318.416 611.59 315.818 607.149 315.191 606.819C311.791 605.029 311.363 603.044 307.628 606.036Z" fill="#E3DAD1"/>
<path d="M695.438 874.218C692.45 876.611 694.437 880.148 696.223 883.087C697.703 885.523 702.354 886.275 703.786 883.87C706.227 879.772 703.628 875.331 703.002 875.001C699.602 873.211 699.174 871.226 695.438 874.218Z" fill="#E3DAD1"/>
<path d="M146.415 279.458C143.044 282.492 144.864 286.31 146.519 289.469C147.891 292.087 152.768 292.46 154.487 289.573C157.416 284.655 155.021 279.871 154.383 279.561C150.919 277.878 150.628 275.664 146.415 279.458Z" fill="#E3DAD1"/>
<path d="M843.94 246.01C839.468 249.144 843.004 254.663 846.155 259.268C848.766 263.086 856.216 264.847 858.221 261.48C861.638 255.741 857.035 248.796 856.007 248.22C850.425 245.095 849.529 242.092 843.94 246.01Z" fill="#E3DAD1"/>
<path d="M704.686 396.569C702.259 398.457 703.943 401.357 705.453 403.77C706.705 405.769 710.543 406.46 711.688 404.536C713.641 401.257 711.442 397.613 710.922 397.335C708.099 395.826 707.719 394.209 704.686 396.569Z" fill="#E3DAD1"/>
<path d="M900.59 754.273C898.164 756.161 899.848 759.061 901.357 761.474C902.609 763.474 906.447 764.164 907.593 762.24C909.545 758.961 907.346 755.317 906.826 755.039C904.003 753.53 903.624 751.914 900.59 754.273Z" fill="#E3DAD1"/>
<path d="M528.772 775.645C526.345 777.533 528.029 780.433 529.539 782.846C530.791 784.846 534.629 785.536 535.774 783.612C537.727 780.333 535.528 776.689 535.007 776.411C532.185 774.902 531.805 773.286 528.772 775.645Z" fill="#E3DAD1"/>
<path d="M194.183 873.72C193.963 870.849 197.651 868.518 199.523 867.71C203.033 866.198 205.508 867.709 206.045 869.586C206.735 872 204.208 876.261 202.666 878.35C201.125 880.44 194.459 877.308 194.183 873.72Z" fill="#E3DAD1"/>
<path d="M441.063 514.891C440.842 512.02 444.531 509.688 446.403 508.881C449.912 507.369 452.387 508.88 452.924 510.757C453.614 513.171 451.087 517.432 449.546 519.521C448.004 521.61 441.338 518.479 441.063 514.891Z" fill="#E3DAD1"/>
<path d="M131.668 609.983C128.532 608.129 130.361 603.544 131.668 601.484C134.117 597.622 138.438 596.721 140.932 597.621C144.139 598.778 145.564 603.802 145.92 606.506C146.276 609.21 135.587 612.301 131.668 609.983Z" fill="#E3DAD1"/>
<path d="M182.076 322.872C178.157 320.4 180.443 314.287 182.076 311.54C185.138 306.39 190.538 305.189 193.656 306.389C197.665 307.932 199.446 314.631 199.891 318.236C200.337 321.842 186.975 325.963 182.076 322.872Z" fill="#E3DAD1"/>
<path d="M458.941 111.399C455.022 108.927 457.308 102.814 458.941 100.067C462.003 94.9175 467.403 93.7166 470.521 94.9164C474.53 96.4593 476.311 103.158 476.756 106.764C477.202 110.369 463.84 114.49 458.941 111.399Z" fill="#E3DAD1"/>
<path d="M722.812 424.109C718.893 421.637 721.179 415.524 722.812 412.777C725.874 407.627 731.274 406.427 734.392 407.626C738.401 409.169 740.182 415.868 740.627 419.473C741.073 423.079 727.711 427.2 722.812 424.109Z" fill="#E3DAD1"/>
<path d="M905.723 521.973C901.803 519.5 904.09 513.388 905.723 510.641C908.785 505.491 914.185 504.29 917.303 505.49C921.312 507.033 923.093 513.731 923.538 517.337C923.983 520.942 910.622 525.063 905.723 521.973Z" fill="#E3DAD1"/>
<path d="M256.611 722.17C261.609 722.732 263.108 740.023 266.106 741.502C269.105 742.98 290.857 738.689 290.976 746.037C291.095 753.385 273.235 763.301 272.919 767.201C272.603 771.102 285.425 794.724 277.982 796.656C270.54 798.588 256.611 783.085 253.494 783.085C250.376 783.085 231.07 790.787 224.626 790.787C218.183 790.787 234.122 770.539 234.068 767.201C234.015 763.864 221.892 750.573 221.892 746.037C221.891 741.502 242.251 741.502 245.38 741.502C248.509 741.502 251.613 721.607 256.611 722.17Z" fill="#ECB7AC"/>
<path d="M232.886 782.9C238.05 777.96 249.378 768.381 253.376 769.586M232.886 749.717C236.218 751.03 243.481 754.329 245.88 757.029M253.376 752.529C253.043 745.405 253.176 731.157 256.375 731.157M263.371 757.029C268.202 754.51 278.964 749.778 283.362 751.001M260.373 769.586C264.537 774.025 273.167 783.913 274.366 787.962" stroke="#8C8C8C" stroke-width="2" stroke-dasharray="10 4"/>
<path d="M867.313 319.471C872.311 320.033 873.81 337.324 876.808 338.802C879.807 340.281 901.559 335.99 901.678 343.338C901.796 350.686 883.937 360.602 883.621 364.502C883.305 368.402 896.126 392.025 888.684 393.957C881.241 395.889 867.313 380.386 864.195 380.386C861.078 380.386 841.772 388.087 835.328 388.087C828.884 388.087 844.823 367.84 844.77 364.502C844.716 361.164 832.594 347.874 832.593 343.338C832.593 338.802 852.953 338.802 856.082 338.802C859.211 338.802 862.315 318.908 867.313 319.471Z" fill="#ECB7AC"/>
<path d="M843.588 380.201C848.752 375.261 860.08 365.682 864.078 366.887M843.588 347.018C846.92 348.33 854.183 351.63 856.582 354.33M864.078 349.83C863.745 342.706 863.878 328.458 867.076 328.458M874.073 354.33C878.904 351.811 889.665 347.079 894.063 348.302M871.074 366.887C875.239 371.325 883.868 381.214 885.068 385.263" stroke="#8C8C8C" stroke-width="2" stroke-dasharray="10 4"/>
</svg>
