<svg width="1024" height="1366" viewBox="0 0 1024 1366" fill="none" xmlns="http://www.w3.org/2000/svg">
<g clip-path="url(#clip0_647_3177)">
<rect width="1024" height="1366" fill="#17AAB4"/>
<path d="M82.9595 506.125C77.9619 446.507 0 491.275 0 491.275V1366H1023.5V525.81C945.039 518.983 947.038 455.429 894.063 430.12C841.089 404.811 831.594 485.315 799.45 491.275C757.753 499.005 758.676 474.072 718.149 472.942C693.864 472.265 624.195 531.997 586.714 525.81C529.457 523.569 540.383 447.488 486.263 446.507C423.056 445.36 371.818 473.121 346.331 490.473C320.843 507.825 284.861 513.999 280.863 483.628C276.865 453.257 245.38 463.427 205.899 490.473C166.419 517.519 85.5411 536.922 82.9595 506.125Z" fill="#FCF5EE"/>
<path d="M82.9595 510.014C82.9595 475.706 53.4739 464.458 0 495.164V473.456C8.82902 469.894 23.1101 455.633 57.9717 448.709C108.947 438.586 113.384 477.344 138.932 482.455C183.91 491.454 238.693 432.961 280.863 432.961C309.349 432.961 316.346 462.77 341.333 462.77C372.318 462.77 401.896 444.484 433.288 420.025C491.76 374.469 579.617 442.184 594.21 450.396C626.194 468.394 661.677 458.832 693.661 442.523C725.646 426.213 766.467 461.082 799.45 456.583C832.434 452.085 853.595 386.754 915.553 386.755C964.029 386.755 979.022 432.961 1023.5 448.71V529.7C961.031 529.7 946.788 456.583 903.059 442.523C859.33 428.462 831.594 489.205 799.45 495.164C757.753 502.894 758.676 477.962 718.149 476.831C693.864 476.154 624.195 535.886 586.714 529.699C529.457 527.458 540.383 451.378 486.263 450.396C423.056 449.249 371.818 477.01 346.331 494.362C320.843 511.714 284.861 517.888 280.863 487.517C276.865 457.146 245.38 467.317 205.899 494.362C166.419 521.408 82.9595 540.948 82.9595 510.014Z" fill="white"/>
<path d="M0 494.029C0 494.029 77.9619 449.261 82.9595 508.879C85.5411 539.676 166.419 520.273 205.899 493.227C245.38 466.182 276.865 456.011 280.863 486.382C284.861 516.753 320.843 510.579 346.331 493.227C371.818 475.876 423.056 448.114 486.263 449.261C540.383 450.243 529.457 526.323 586.714 528.565C624.195 534.751 693.864 475.019 718.149 475.696C758.676 476.827 757.753 501.759 799.45 494.029C841.148 486.299 850.585 430.624 900.56 443.56C950.536 456.495 954.534 528.565 1024 528.565" stroke="#C4C4C4" stroke-width="3"/>
<path d="M110.839 777.417C110.588 758.502 123.755 749.254 130.369 746.994C141.482 748.235 145.882 757.72 139.415 762.619C132.947 767.519 122.803 772.188 133.969 788.432C143.177 801.827 137.566 818.252 130.961 829.694C124.356 841.136 124.005 834.313 122.445 855.725C120.884 877.137 106.274 872.657 99.1637 867.741C94.883 861.267 90.5016 844.064 107.222 827.043C128.122 805.767 111.152 801.062 110.839 777.417Z" fill="#90CEB5"/>
<path d="M106.409 870.984C106.247 859.136 108.308 838.27 116.993 831.593C124.576 825.764 127.969 814.966 127.922 808.577C125.721 796.505 120.781 786.8 120.721 776.692" stroke="#8C8C8C"/>
<path d="M850.352 1156.7C842.505 1140.09 826.152 1139.84 818.957 1141.79C809.021 1149.45 808.93 1160.3 817.115 1160.74C825.3 1161.17 836.849 1159.23 833.274 1179.97C830.325 1197.07 842.628 1208.04 853.738 1214.09C864.848 1220.13 862.264 1213.99 872.883 1231.7C883.502 1249.4 895.348 1236.86 899.944 1228.37C901.21 1220.2 897.985 1202.64 874.964 1197.73C846.187 1191.59 860.16 1177.45 850.352 1156.7Z" fill="#90CEB5"/>
<path d="M894.562 1235.65C889.634 1225.23 878.753 1208.27 867.744 1207.57C858.131 1206.96 850.318 1199.56 847.623 1193.96C844.511 1182.15 844.983 1170.79 840.705 1161.95" stroke="#666666"/>
<path d="M133.927 1248.86C128.504 1242.51 117.752 1247.63 113.054 1250.99C109.159 1253.77 114.505 1261.8 119.39 1264.97C136.855 1276.32 138.193 1268.82 138.567 1267.57C140.597 1260.79 140.707 1256.81 133.927 1248.86Z" fill="#E3DAD1"/>
<path d="M505.781 1125.29C500.163 1130.35 503.197 1136.71 505.955 1141.98C508.241 1146.34 516.37 1146.96 519.234 1142.15C524.116 1133.96 520.125 1125.98 519.061 1125.47C513.288 1122.66 512.802 1118.97 505.781 1125.29Z" fill="#E3DAD1"/>
<path d="M307.628 990.035C304.639 992.429 306.627 995.966 308.412 998.904C309.893 1001.34 314.543 1002.09 315.976 999.688C318.416 995.589 315.818 991.148 315.191 990.819C311.791 989.029 311.363 987.044 307.628 990.035Z" fill="#E3DAD1"/>
<path d="M695.438 1258.22C692.45 1260.61 694.437 1264.15 696.223 1267.09C697.703 1269.52 702.354 1270.28 703.786 1267.87C706.227 1263.77 703.629 1259.33 703.002 1259C699.602 1257.21 699.174 1255.23 695.438 1258.22Z" fill="#E3DAD1"/>
<path d="M146.415 663.458C143.044 666.493 144.864 670.311 146.519 673.469C147.891 676.088 152.768 676.46 154.487 673.574C157.416 668.655 155.021 663.872 154.383 663.562C150.919 661.879 150.628 659.664 146.415 663.458Z" fill="#E3DAD1"/>
<path d="M843.94 630.01C839.469 633.144 843.004 638.663 846.155 643.268C848.766 647.086 856.216 648.847 858.221 645.48C861.638 639.741 857.035 632.796 856.007 632.22C850.425 629.095 849.529 626.092 843.94 630.01Z" fill="#E3DAD1"/>
<path d="M704.686 780.569C702.259 782.456 703.944 785.357 705.453 787.769C706.705 789.769 710.543 790.459 711.689 788.535C713.641 785.256 711.442 781.613 710.922 781.334C708.099 779.825 707.719 778.209 704.686 780.569Z" fill="#E3DAD1"/>
<path d="M900.59 1138.27C898.164 1140.16 899.848 1143.06 901.358 1145.47C902.609 1147.47 906.447 1148.16 907.593 1146.24C909.546 1142.96 907.346 1139.32 906.826 1139.04C904.003 1137.53 903.624 1135.91 900.59 1138.27Z" fill="#E3DAD1"/>
<path d="M528.772 1159.65C526.345 1161.53 528.029 1164.43 529.539 1166.85C530.791 1168.85 534.629 1169.54 535.775 1167.61C537.727 1164.33 535.528 1160.69 535.008 1160.41C532.185 1158.9 531.805 1157.29 528.772 1159.65Z" fill="#E3DAD1"/>
<path d="M194.183 1257.72C193.962 1254.85 197.651 1252.52 199.523 1251.71C203.032 1250.2 205.508 1251.71 206.045 1253.59C206.735 1256 204.208 1260.26 202.666 1262.35C201.125 1264.44 194.459 1261.31 194.183 1257.72Z" fill="#E3DAD1"/>
<path d="M441.063 898.891C440.842 896.02 444.531 893.688 446.403 892.881C449.912 891.368 452.387 892.88 452.924 894.757C453.614 897.17 451.087 901.431 449.546 903.521C448.004 905.61 441.338 902.479 441.063 898.891Z" fill="#E3DAD1"/>
<path d="M131.668 993.983C128.532 992.128 130.361 987.544 131.668 985.484C134.117 981.621 138.438 980.721 140.932 981.62C144.139 982.778 145.564 987.802 145.92 990.506C146.276 993.21 135.587 996.301 131.668 993.983Z" fill="#E3DAD1"/>
<path d="M182.076 706.872C178.157 704.4 180.443 698.287 182.076 695.54C185.138 690.39 190.539 689.189 193.656 690.389C197.665 691.932 199.446 698.631 199.892 702.236C200.337 705.842 186.975 709.963 182.076 706.872Z" fill="#E3DAD1"/>
<path d="M458.941 495.399C455.022 492.927 457.308 486.814 458.941 484.067C462.003 478.917 467.403 477.716 470.521 478.916C474.53 480.459 476.311 487.158 476.756 490.763C477.202 494.369 463.84 498.49 458.941 495.399Z" fill="#E3DAD1"/>
<path d="M722.812 808.109C718.893 805.637 721.179 799.524 722.812 796.777C725.874 791.627 731.274 790.427 734.392 791.626C738.401 793.169 740.182 799.868 740.627 803.473C741.073 807.079 727.711 811.2 722.812 808.109Z" fill="#E3DAD1"/>
<path d="M905.723 905.972C901.804 903.5 904.09 897.387 905.723 894.64C908.785 889.49 914.185 888.289 917.303 889.489C921.312 891.032 923.093 897.731 923.538 901.336C923.984 904.942 910.622 909.063 905.723 905.972Z" fill="#E3DAD1"/>
<path d="M256.611 1106.17C261.609 1106.73 263.108 1124.02 266.107 1125.5C269.105 1126.98 290.857 1122.69 290.976 1130.04C291.095 1137.39 273.235 1147.3 272.919 1151.2C272.603 1155.1 285.425 1178.72 277.982 1180.66C270.54 1182.59 256.611 1167.08 253.494 1167.08C250.376 1167.08 231.07 1174.79 224.626 1174.79C218.183 1174.79 234.122 1154.54 234.068 1151.2C234.015 1147.86 221.892 1134.57 221.892 1130.04C221.891 1125.5 242.251 1125.5 245.38 1125.5C248.509 1125.5 251.613 1105.61 256.611 1106.17Z" fill="#ECB7AC"/>
<path d="M232.886 1166.9C238.05 1161.96 249.378 1152.38 253.376 1153.59M232.886 1133.72C236.218 1135.03 243.481 1138.33 245.88 1141.03M253.376 1136.53C253.043 1129.41 253.176 1115.16 256.375 1115.16M263.371 1141.03C268.202 1138.51 278.964 1133.78 283.362 1135M260.373 1153.59C264.537 1158.02 273.167 1167.91 274.366 1171.96" stroke="#8C8C8C" stroke-width="2" stroke-dasharray="10 4"/>
<path d="M867.313 703.471C872.311 704.034 873.81 721.324 876.808 722.803C879.807 724.281 901.559 719.991 901.678 727.339C901.797 734.687 883.937 744.602 883.621 748.503C883.305 752.403 896.127 776.025 888.684 777.957C881.242 779.889 867.313 764.386 864.196 764.386C861.078 764.386 841.772 772.088 835.328 772.088C828.885 772.088 844.824 751.84 844.77 748.503C844.716 745.165 832.594 731.874 832.593 727.339C832.593 722.803 852.953 722.803 856.082 722.803C859.211 722.803 862.315 702.909 867.313 703.471Z" fill="#ECB7AC"/>
<path d="M843.588 764.201C848.752 759.261 860.08 749.682 864.078 750.888M843.588 731.018C846.92 732.331 854.183 735.63 856.582 738.33M864.078 733.831C863.745 726.706 863.878 712.458 867.077 712.458M874.073 738.33C878.904 735.811 889.666 731.079 894.063 732.302M871.075 750.888C875.239 755.326 883.868 765.214 885.068 769.264" stroke="#8C8C8C" stroke-width="2" stroke-dasharray="10 4"/>
</g>
<defs>
<clipPath id="clip0_647_3177">
<rect width="1024" height="1366" fill="white"/>
</clipPath>
</defs>
</svg>
